<svg width="168" height="50" viewBox="0 0 168 50" fill="none" xmlns="http://www.w3.org/2000/svg">
<g clip-path="url(#clip0)">
<path d="M167.107 20.1003L162.54 22.0132L83.9567 7.65914L52.6523 13.527L52.4508 13.5662C51.3722 13.7661 50.3765 12.9547 50.3765 11.8807V3.0613H35.7061V14.6127C35.7061 15.4359 35.1056 16.1453 34.2798 16.2982L33.4264 16.455L5.37368 22.0171L1.78215 20.1043L33.4224 13.5858V1.47382C33.4224 0.658514 34.098 0 34.9317 0H51.143C51.9767 0 52.6523 0.662433 52.6523 1.47382V10.6538L83.9567 4.78598L167.107 20.1003Z" fill="#006F5F"/>
<path d="M35.2553 32.5024H34.6864C32.288 32.5024 30.0122 33.5411 28.4476 35.3442L26.8474 37.1865L28.4476 39.0288C30.0122 40.8318 32.288 41.8706 34.6864 41.8706H35.2553C37.6536 41.8706 39.9294 40.8318 41.4941 39.0288L43.0943 37.1865L41.4941 35.3442C39.9294 33.5372 37.6497 32.5024 35.2553 32.5024Z" fill="#006F5F"/>
<path d="M57.9344 31.7459C54.2007 31.7459 52.1501 34.1369 52.1501 36.6064V47.4091H46.8477V27.297H52.1501V28.7552L51.7471 31.7106C53.9162 28.0849 55.3623 26.9247 59.7796 26.811V31.7459H57.9344Z" fill="#006F5F"/>
<path d="M66.37 38.8093C66.5715 39.8205 67.3735 43.8931 71.6328 43.8931C72.5969 43.8931 74.687 43.6697 75.5681 41.4629H80.91C80.2264 43.1445 78.3773 47.8952 71.3523 47.8952C65.4889 47.8952 61.0716 44.2694 61.0716 37.3903C61.0716 30.2133 65.8524 26.811 71.1942 26.811C74.77 26.811 77.5397 28.3436 79.1478 30.6249C80.1711 32.0752 80.6887 33.5607 80.9692 35.0777C81.3288 37.0297 79.693 38.8093 77.5673 38.8093H66.37ZM71.2298 30.8483C67.2945 30.8483 66.611 34.3251 66.37 35.5951H75.5681C75.4496 32.4554 73.881 30.8483 71.2298 30.8483Z" fill="#006F5F"/>
<path d="M90.9141 32.4162V48.5654H85.6118V32.4162H82.7196V28.4533H85.6118V26.3955C85.6118 22.805 88.504 21.2724 91.5581 21.2724H94.6123V25.5331H92.8857C91.7597 25.5331 90.9181 26.0192 90.9181 27.2147V28.4494H94.6123V32.4162H90.9141Z" fill="#006F5F"/>
<path d="M107.544 47.8949C99.1919 47.8949 96.3392 42.4387 96.3392 37.4998C96.3392 30.8089 101.519 26.8068 107.667 26.8068C114.858 26.8068 118.955 31.5928 118.955 37.4254C118.951 42.5876 115.577 47.8949 107.544 47.8949ZM107.667 30.7344C104.696 30.7344 101.764 32.902 101.764 37.3156C101.764 41.1295 104.012 43.9713 107.829 43.9713C112.811 43.9713 113.574 39.8595 113.574 37.3548C113.57 32.7531 110.638 30.7344 107.667 30.7344Z" fill="#006F5F"/>
<path d="M133.092 31.7459C129.358 31.7459 127.308 34.1369 127.308 36.6064V47.4091H122.005V27.297H127.308V28.7552L126.905 31.7106C129.074 28.0849 130.52 26.9247 134.937 26.811V31.7459H133.092Z" fill="#006F5F"/>
<path d="M162.697 47.4091V35.1835C162.697 32.8278 161.974 30.9581 159.363 30.9581C156.352 30.9581 155.265 33.6117 155.265 35.1835V47.4091H149.963V35.1835C149.963 33.6117 149.481 31.0325 146.51 31.0325C143.74 31.0325 142.614 33.5372 142.614 34.8817V47.4052H137.312V27.297H142.614V28.3828L142.452 30.178C143.377 28.8336 144.7 26.811 148.517 26.811C152.172 26.811 153.539 28.6807 154.582 30.1388C155.747 28.8688 157.636 26.811 161.449 26.811C166.348 26.811 167.996 30.2133 167.996 34.5877V47.413H162.697V47.4091Z" fill="#006F5F"/>
<path d="M6.7682 38.4016C7.02502 39.6912 8.04835 44.8927 13.485 44.8927C14.7138 44.8927 17.3808 44.6065 18.5108 41.7882H25.3304C24.4572 43.9362 22.0984 50.0001 13.1255 50.0001C5.64214 50.0001 0 45.3709 0 36.5868C0 27.4224 6.10442 23.0794 12.924 23.0794C17.4875 23.0794 21.0277 25.0353 23.0783 27.9477C24.5599 30.0487 25.2119 32.2045 25.5319 34.4192C25.8361 36.5319 24.0384 38.4016 21.7507 38.4016H6.7682ZM12.9754 28.2338C7.94958 28.2338 7.07639 32.6749 6.7682 34.2976H18.5108C18.3607 30.2838 16.3614 28.2338 12.9754 28.2338Z" fill="#006F5F"/>
</g>
<defs>
<clipPath id="clip0">
<rect width="168" height="50" fill="white"/>
</clipPath>
</defs>
</svg>
