<svg width="20" height="22" viewBox="0 0 20 22" fill="none" xmlns="http://www.w3.org/2000/svg">
<g clip-path="url(#clip0)">
<path d="M10 0C8.37272 0 7.04834 1.31313 7.04834 2.9266V3.80961H8.5751V2.9266C8.5751 2.14758 9.21475 1.51379 10 1.51379C10.7857 1.51379 11.4254 2.14758 11.4254 2.9266V3.80961H12.9521V2.9266C12.9521 1.31313 11.6278 0 10 0Z" fill="#0F6B55"/>
<path d="M12.0868 18.4422C12.0868 19.5692 11.162 20.4862 10.0257 20.4862H9.97495C8.83866 20.4862 7.91385 19.5692 7.91385 18.4422H6.38708C6.38708 20.4041 7.99662 22 9.97495 22H10.0257C12.004 22 13.6135 20.4041 13.6135 18.4426L12.0868 18.4422Z" fill="#0F6B55"/>
<path d="M19.8787 18.1595L17.7101 14.8144V10.5205C17.7101 6.26357 14.2514 2.80029 10 2.80029C5.74865 2.80029 2.28993 6.26357 2.28993 10.5205V14.8144L0.121346 18.1595C-0.0299003 18.3924 -0.0403012 18.6884 0.0931766 18.9316C0.227088 19.1744 0.483643 19.3261 0.763166 19.3261H19.2364C19.5159 19.3261 19.7725 19.1748 19.906 18.9321C20.0407 18.6888 20.0299 18.3924 19.8787 18.1595ZM2.16165 17.8119L3.69534 15.446C3.77465 15.324 3.81669 15.1817 3.81669 15.0369V10.5209C3.81669 7.09889 6.59068 4.31451 10 4.31451C13.4098 4.31451 16.1833 7.09889 16.1833 10.5209V15.0369C16.1833 15.1822 16.2254 15.324 16.3047 15.446L17.8384 17.8119H2.16165Z" fill="#0F6B55"/>
</g>
<defs>
<clipPath id="clip0">
<rect width="20" height="22" fill="white"/>
</clipPath>
</defs>
</svg>
