<svg width="25" height="16" viewBox="0 0 25 16" fill="none" xmlns="http://www.w3.org/2000/svg">
<path d="M1.56577 12.0227C1.74472 12.0963 1.93775 12.1468 2.13642 12.1754L1.82644 12.5385C1.76397 12.6122 1.72311 12.6962 1.70667 12.7849L1.24593 15.3381C1.20695 15.5544 1.32014 15.7703 1.53806 15.8956C1.75646 16.0213 2.04201 16.0344 2.27638 15.9303L4.88162 14.7722C5.24139 15.3058 5.93415 15.6681 6.72836 15.6681C7.268 15.6681 7.76115 15.5008 8.13454 15.2263C8.50793 15.5008 9.00108 15.6681 9.54072 15.6681C10.7041 15.6681 11.6505 14.8913 11.6505 13.9368V13.7159C12.9585 14.2383 14.4149 14.5139 15.869 14.5139C17.3715 14.5139 18.8613 14.2309 20.1815 13.6966V15.0914C20.1815 15.2915 20.3078 15.4773 20.515 15.5826C20.7221 15.6874 20.9809 15.6974 21.1993 15.6076L24.0121 14.4534C24.2502 14.3555 24.401 14.1558 24.401 13.9372V7.01103C24.401 6.69221 24.0859 6.43391 23.6979 6.43391C22.5777 6.43391 19.8607 6.43391 18.8448 6.43391L13.8847 4.44157L15.769 2.23258C15.9916 1.97158 15.9146 1.61151 15.5961 1.42878L13.292 0.104537C12.974 -0.078197 12.5353 -0.0149727 12.3127 0.246406C12.0149 0.595297 10.1151 2.8228 9.81924 3.16938C9.24249 2.92072 8.55066 2.92188 8.112 3.07801L5.4363 4.03216C5.04836 4.17056 4.72335 4.3984 4.49697 4.69139L0.657905 9.64794C0.408512 9.96985 0.305185 10.5227 0.507612 11.0215C0.686085 11.4602 1.06182 11.8157 1.56577 12.0227ZM2.84327 14.3659L3.07387 13.0894L3.70276 12.3523C3.97235 12.6754 4.33916 12.9391 4.76843 13.116L4.22597 13.7517L2.84327 14.3659ZM6.72836 14.5139C6.34088 14.5139 6.02526 14.2548 6.02526 13.9368V13.6546L6.27701 13.3597H7.43145V13.9368C7.43145 14.2552 7.11583 14.5139 6.72836 14.5139ZM9.54072 14.5139C9.15278 14.5139 8.83763 14.2548 8.83763 13.9368V13.3597H10.2438V13.9368C10.2438 14.2552 9.92867 14.5139 9.54072 14.5139ZM22.9943 13.5802L21.5877 14.1573V7.58814H22.9943V13.5802ZM18.3723 7.52916C18.4686 7.56771 18.5743 7.58776 18.6814 7.58776H20.1815V12.4179C19.7076 12.569 18.2361 13.3593 15.869 13.3593C13.3596 13.3593 11.8139 12.4472 11.2611 12.266C11.1606 12.2247 11.0502 12.2051 10.9469 12.2051H6.02479C5.30573 12.2051 4.7116 11.7598 4.62894 11.1873C4.65102 11.1036 4.64867 11.0177 4.62566 10.9356C4.69611 10.353 5.29681 9.8966 6.02479 9.8966H10.3645C11.8346 9.8966 13.2173 9.42666 14.2567 8.57313C14.5309 8.3476 14.5309 7.98214 14.2567 7.757C13.9819 7.53147 13.5367 7.53147 13.2624 7.757C12.4884 8.39232 11.4593 8.74237 10.3645 8.74237H10.2156L13.0679 5.3988L18.3723 7.52916ZM11.448 3.27231L12.6001 3.93462L8.49853 8.74276H6.7819C7.37978 8.04151 10.8999 3.91535 11.448 3.27231ZM13.0613 1.38097L14.2134 2.04329L13.4066 2.98895L12.2549 2.32664L13.0613 1.38097ZM1.8673 10.2378L5.68382 5.31014C5.75943 5.2126 5.86793 5.13665 5.99708 5.09039L8.63896 4.1482C8.75638 4.12005 8.87755 4.11813 8.99168 4.13894L4.90041 8.93551C4.03575 9.24662 3.39654 9.90431 3.24624 10.6935C3.11755 10.9899 2.55912 11.1395 2.19466 10.9899C1.8518 10.8496 1.7156 10.5154 1.8673 10.2378Z" fill="#0F6B55"/>
</svg>
