<svg width="31" height="25" viewBox="0 0 31 25" fill="none" xmlns="http://www.w3.org/2000/svg">
<path d="M28.58 6.43H27.74V15.68C27.74 17.12 26.9 18.42 25.22 18.42H8.73999V18.86C8.73999 20.13 10.19 21.42 11.68 21.42H24.28L29.1 24.25L28.4 21.42H28.58C30.07 21.42 30.74 20.14 30.74 18.86V8.63C30.74 7.35 30.07 6.43 28.58 6.43Z" fill="#E01212"/>
<path d="M22.76 0H3.62C1.94 0 0 1.5 0 2.94V14.54C0 15.87 1.64 16.83 3.22 16.97L2.19 20.86L8.76 17H22.76C24.44 17 26 15.98 26 14.54V5.15V2.94C26 1.5 24.44 0 22.76 0ZM6.54 9.79C5.59 9.79 4.81 9.02 4.81 8.06C4.81 7.1 5.58 6.33 6.54 6.33C7.49 6.33 8.27 7.1 8.27 8.06C8.27 9.02 7.5 9.79 6.54 9.79ZM13 9.79C12.05 9.79 11.27 9.02 11.27 8.06C11.27 7.1 12.05 6.33 13 6.33C13.95 6.33 14.73 7.1 14.73 8.06C14.73 9.02 13.95 9.79 13 9.79ZM19.46 9.79C18.51 9.79 17.73 9.02 17.73 8.06C17.73 7.1 18.5 6.33 19.46 6.33C20.41 6.33 21.19 7.1 21.19 8.06C21.19 9.02 20.41 9.79 19.46 9.79Z" fill="#E01212"/>
</svg>
