<svg width="22" height="16" viewBox="0 0 22 16" fill="none" xmlns="http://www.w3.org/2000/svg">
<path d="M21.6984 3.324C21.4385 3.09467 21.0719 3.04622 20.7643 3.20089L16.0618 5.56889L11.6493 0.306667C11.486 0.112 11.2493 0 11.0001 0C10.7508 0 10.5141 0.112 10.3508 0.306667L5.93834 5.56889L1.23585 3.20089C0.928619 3.04622 0.561666 3.09467 0.301705 3.324C0.041744 3.55333 -0.0622403 3.92044 0.0374472 4.25867L3.30307 15.3698C3.41307 15.744 3.74694 16 4.12506 16H17.8751C18.2532 16 18.5871 15.744 18.6971 15.3698L21.9627 4.25867C22.0624 3.92044 21.9584 3.55333 21.6984 3.324ZM17.2383 14.2222H4.76186L2.25463 5.69111L5.77893 7.46578C6.1287 7.64178 6.54936 7.55289 6.80417 7.24889L11.0001 2.24578L15.1955 7.24933C15.4503 7.55333 15.871 7.64222 16.2208 7.46622L19.7451 5.69156L17.2383 14.2222Z" fill="#0F6B55"/>
</svg>
