<svg width="12" height="12" viewBox="0 0 12 12" fill="none" xmlns="http://www.w3.org/2000/svg">
<g clip-path="url(#clip0)">
<path d="M11.6776 5.21941C11.6771 5.21918 11.6769 5.21871 11.6766 5.21847L6.78104 0.323601C6.57248 0.114834 6.29488 0 5.9999 0C5.70492 0 5.42732 0.114834 5.21854 0.323601L0.325532 5.21613C0.323888 5.21777 0.322244 5.21941 0.3206 5.22106C-0.108013 5.65198 -0.107074 6.35108 0.322714 6.78106C0.519054 6.97761 0.778336 7.09127 1.0557 7.10325C1.06697 7.10442 1.07848 7.10489 1.08976 7.10489H1.28469V10.7072C1.28469 11.4202 1.86478 12.0002 2.57781 12.0002H4.49306C4.68729 12.0002 4.84464 11.8427 4.84464 11.6487V8.82435C4.84464 8.4991 5.10933 8.23444 5.4346 8.23444H6.56426C6.88954 8.23444 7.15422 8.4991 7.15422 8.82435V11.6485C7.15422 11.8427 7.31158 12 7.50581 12H9.42106C10.1341 12 10.7142 11.42 10.7142 10.707V7.10466H10.895C11.19 7.10466 11.4674 6.98983 11.6764 6.78082C12.1071 6.35061 12.1074 5.6501 11.6776 5.21941ZM11.1797 6.28392C11.1038 6.35977 11.0028 6.40157 10.8957 6.40157H10.3633C10.1691 6.40157 10.0117 6.55891 10.0117 6.75311V10.707C10.0117 11.0323 9.74704 11.2967 9.42177 11.2967H7.85809V8.82435C7.85809 8.11139 7.27799 7.53135 6.56497 7.53135H5.43531C4.72228 7.53135 4.14219 8.11139 4.14219 8.82435V11.2969H2.57851C2.25324 11.2969 1.98855 11.0323 1.98855 10.7072V6.75335C1.98855 6.55914 1.8312 6.4018 1.63697 6.4018H1.11324C1.10784 6.40133 1.10244 6.4011 1.0968 6.4011C0.992056 6.39922 0.893886 6.35765 0.820141 6.28392C0.663491 6.12728 0.663491 5.87249 0.820141 5.71585C0.820141 5.71585 0.820141 5.71585 0.820375 5.71562L0.82061 5.71538L5.71596 0.820744C5.79182 0.744893 5.89257 0.703092 5.9999 0.703092C6.10723 0.703092 6.20799 0.744893 6.28385 0.820744L11.178 5.71444C11.1787 5.71515 11.1797 5.71585 11.1804 5.71656C11.3361 5.87343 11.3358 6.12775 11.1797 6.28392Z" fill="black"/>
</g>
<defs>
<clipPath id="clip0">
<rect width="12" height="12" fill="white"/>
</clipPath>
</defs>
</svg>
