<svg width="50" height="50" viewBox="0 0 50 50" fill="none" xmlns="http://www.w3.org/2000/svg">
<circle cx="25" cy="25" r="25" transform="rotate(-180 25 25)" fill="black"/>
<path d="M13.8991 26.57L29.68 42.3502C30.0447 42.7156 30.5319 42.9167 31.0516 42.9167C31.5712 42.9167 32.0585 42.7156 32.4232 42.3502L33.5857 41.1883C34.3418 40.4315 34.3418 39.2005 33.5857 38.4451L20.334 25.1934L33.6002 11.9272C33.9649 11.5618 34.1667 11.0753 34.1667 10.5557C34.1667 10.036 33.9649 9.54876 33.6002 9.18334L32.4383 8.02149C32.0729 7.65607 31.5864 7.45497 31.0667 7.45497C30.5471 7.45497 30.0598 7.65607 29.6951 8.02149L13.8991 23.8168C13.533 24.1829 13.3326 24.6723 13.3333 25.1927C13.3326 25.7145 13.533 26.2039 13.8991 26.57Z" fill="white"/>
</svg>
