<svg width="21" height="16" viewBox="0 0 21 16" fill="none" xmlns="http://www.w3.org/2000/svg">
<path d="M19.1543 0H1.8457C0.829336 0 0 0.828718 0 1.84615V14.1538C0 15.168 0.825644 16 1.8457 16H19.1543C20.1682 16 21 15.1742 21 14.1538V1.84615C21 0.832 20.1744 0 19.1543 0ZM18.8996 1.23077L10.539 9.59303L2.10656 1.23077H18.8996ZM1.23047 13.8991V2.09518L7.15641 7.97169L1.23047 13.8991ZM2.10041 14.7692L8.03004 8.83815L10.1079 10.8985C10.3482 11.1368 10.7367 11.1364 10.9762 10.8964L13.002 8.87015L18.8996 14.7692H2.10041ZM19.7695 13.8991L13.8719 8L19.7695 2.10092V13.8991Z" fill="#fff" stroke="#fff"/>
</svg>
