<svg width="50" height="50" viewBox="0 0 50 50" fill="none" xmlns="http://www.w3.org/2000/svg">
<circle cx="25" cy="25" r="25" fill="black"/>
<path d="M23.994 7.42369L12.4178 18.9829C12.1497 19.25 12.002 19.6071 12.0017 19.988C12.0014 20.3689 12.1486 20.7262 12.4162 20.9937L13.2673 21.8466C13.8216 22.4013 14.724 22.4019 15.2781 21.8481L24.9995 12.1415L34.7168 21.8735C34.9844 22.141 35.341 22.2892 35.7219 22.2895C36.1028 22.2898 36.4601 22.1421 36.7282 21.875L37.5805 21.0239C37.8486 20.7563 37.9962 20.3998 37.9965 20.0188C37.9968 19.6379 37.8497 19.2806 37.582 19.0131L26.0123 7.42522C25.7441 7.15662 25.3854 7.00947 25.004 7.00971C24.6215 7.00889 24.2626 7.1555 23.994 7.42369Z" fill="white"/>
<path d="M15.745 37H13.782V29.356H11.26V27.718H18.267V29.356H15.745V37ZM29.6884 32.346C29.6884 33.308 29.5281 34.1487 29.2074 34.868C28.8954 35.5787 28.4144 36.1333 27.7644 36.532C27.1144 36.9307 26.2824 37.13 25.2684 37.13C24.2631 37.13 23.4311 36.9307 22.7724 36.532C22.1224 36.1333 21.6371 35.5743 21.3164 34.855C21.0044 34.1357 20.8484 33.295 20.8484 32.333C20.8484 31.371 21.0044 30.5347 21.3164 29.824C21.6371 29.1133 22.1224 28.563 22.7724 28.173C23.4311 27.7743 24.2674 27.575 25.2814 27.575C26.2867 27.575 27.1144 27.7743 27.7644 28.173C28.4144 28.563 28.8954 29.1177 29.2074 29.837C29.5281 30.5477 29.6884 31.384 29.6884 32.346ZM22.9154 32.346C22.9154 33.3167 23.1017 34.0837 23.4744 34.647C23.8471 35.2017 24.4451 35.479 25.2684 35.479C26.1091 35.479 26.7114 35.2017 27.0754 34.647C27.4394 34.0837 27.6214 33.3167 27.6214 32.346C27.6214 31.3667 27.4394 30.5997 27.0754 30.045C26.7114 29.4903 26.1134 29.213 25.2814 29.213C24.4494 29.213 23.8471 29.4903 23.4744 30.045C23.1017 30.5997 22.9154 31.3667 22.9154 32.346ZM36.3951 27.718C37.5911 27.718 38.4621 27.978 39.0081 28.498C39.5628 29.0093 39.8401 29.7157 39.8401 30.617C39.8401 31.1543 39.7274 31.6613 39.5021 32.138C39.2768 32.606 38.8998 32.983 38.3711 33.269C37.8511 33.555 37.1404 33.698 36.2391 33.698H35.3941V37H33.4311V27.718H36.3951ZM36.2911 29.33H35.3941V32.086H36.0441C36.5988 32.086 37.0364 31.9777 37.3571 31.761C37.6864 31.5357 37.8511 31.176 37.8511 30.682C37.8511 29.7807 37.3311 29.33 36.2911 29.33Z" fill="white"/>
</svg>
