<svg width="39" height="37" viewBox="0 0 39 37" fill="none" xmlns="http://www.w3.org/2000/svg">
<path d="M17.6472 3.83795C18.3838 2.31217 20.5652 2.33614 21.268 3.87774L24.8333 11.6973C25.1282 12.3438 25.7439 12.7854 26.4509 12.8573L34.9229 13.7184C36.5802 13.8868 37.3173 15.8889 36.1647 17.0918L30.1034 23.4177C29.667 23.8731 29.4711 24.5078 29.5747 25.13L30.8817 32.9773C31.1548 34.617 29.4245 35.8548 27.9608 35.0669L20.448 31.0224C19.8562 30.7037 19.1438 30.7037 18.552 31.0224L11.0392 35.0669C9.57553 35.8548 7.84524 34.617 8.11834 32.9772L9.42534 25.13C9.52897 24.5078 9.333 23.8731 8.89661 23.4177L2.82605 17.0822C1.67517 15.881 2.40826 13.8817 4.06279 13.7092L12.24 12.8569C12.9294 12.785 13.5324 12.3613 13.8337 11.7372L17.6472 3.83795Z" fill="#F8D107"/>
<path d="M23.1481 17.244C23.1481 17.9347 22.9381 18.4853 22.5181 18.896C22.1075 19.3067 21.5988 19.5867 20.9921 19.736V19.778C21.7948 19.8713 22.4015 20.114 22.8121 20.506C23.2321 20.898 23.4421 21.4253 23.4421 22.088C23.4421 22.6667 23.2975 23.1893 23.0081 23.656C22.7281 24.1133 22.2895 24.4773 21.6921 24.748C21.1041 25.0093 20.3435 25.14 19.4101 25.14C18.3275 25.14 17.3661 24.958 16.5261 24.594V22.802C16.9555 23.0167 17.4035 23.18 17.8701 23.292C18.3461 23.404 18.7848 23.46 19.1861 23.46C19.9421 23.46 20.4695 23.3293 20.7681 23.068C21.0761 22.8067 21.2301 22.438 21.2301 21.962C21.2301 21.682 21.1601 21.4487 21.0201 21.262C20.8801 21.066 20.6328 20.9213 20.2781 20.828C19.9328 20.7253 19.4475 20.674 18.8221 20.674H18.0661V19.05H18.8361C19.4521 19.05 19.9188 18.994 20.2361 18.882C20.5628 18.7607 20.7821 18.602 20.8941 18.406C21.0155 18.2007 21.0761 17.9673 21.0761 17.706C21.0761 17.3513 20.9641 17.076 20.7401 16.88C20.5255 16.6747 20.1615 16.572 19.6481 16.572C19.1721 16.572 18.7568 16.656 18.4021 16.824C18.0568 16.9827 17.7628 17.1413 17.5201 17.3L16.5401 15.844C16.9321 15.564 17.3895 15.3307 17.9121 15.144C18.4441 14.9573 19.0741 14.864 19.8021 14.864C20.8288 14.864 21.6408 15.074 22.2381 15.494C22.8448 15.9047 23.1481 16.488 23.1481 17.244Z" fill="white"/>
</svg>
