<svg width="39" height="37" viewBox="0 0 39 37" fill="none" xmlns="http://www.w3.org/2000/svg">
<path d="M17.6472 3.83795C18.3838 2.31217 20.5652 2.33614 21.268 3.87774L24.8333 11.6973C25.1282 12.3438 25.7439 12.7854 26.4509 12.8573L34.9229 13.7184C36.5802 13.8868 37.3173 15.8889 36.1647 17.0918L30.1034 23.4177C29.667 23.8731 29.4711 24.5078 29.5747 25.13L30.8817 32.9773C31.1548 34.617 29.4245 35.8548 27.9608 35.0669L20.448 31.0224C19.8562 30.7037 19.1438 30.7037 18.552 31.0224L11.0392 35.0669C9.57553 35.8548 7.84524 34.617 8.11834 32.9772L9.42534 25.13C9.52897 24.5078 9.333 23.8731 8.89661 23.4177L2.82605 17.0822C1.67517 15.881 2.40826 13.8817 4.06279 13.7092L12.24 12.8569C12.9294 12.785 13.5324 12.3613 13.8337 11.7372L17.6472 3.83795Z" fill="#F8D107"/>
<path d="M23.5401 25H16.5541V23.53L19.0601 20.996C19.5641 20.4733 19.9701 20.0393 20.2781 19.694C20.5861 19.3393 20.8101 19.022 20.9501 18.742C21.0901 18.4527 21.1601 18.1447 21.1601 17.818C21.1601 17.4167 21.0481 17.118 20.8241 16.922C20.6095 16.726 20.3155 16.628 19.9421 16.628C19.5595 16.628 19.1861 16.7167 18.8221 16.894C18.4581 17.0713 18.0755 17.3233 17.6741 17.65L16.5261 16.292C16.8155 16.04 17.1188 15.8067 17.4361 15.592C17.7628 15.3773 18.1361 15.2047 18.5561 15.074C18.9855 14.934 19.4988 14.864 20.0961 14.864C20.7495 14.864 21.3095 14.9853 21.7761 15.228C22.2521 15.4613 22.6161 15.7833 22.8681 16.194C23.1295 16.5953 23.2601 17.0527 23.2601 17.566C23.2601 18.1167 23.1481 18.6207 22.9241 19.078C22.7095 19.5353 22.3921 19.988 21.9721 20.436C21.5615 20.884 21.0621 21.3787 20.4741 21.92L19.1861 23.124V23.222H23.5401V25Z" fill="white"/>
</svg>
