<svg width="39" height="37" viewBox="0 0 39 37" fill="none" xmlns="http://www.w3.org/2000/svg">
<path d="M17.6472 3.83795C18.3838 2.31217 20.5652 2.33614 21.268 3.87774L24.8333 11.6973C25.1282 12.3438 25.7439 12.7854 26.4509 12.8573L34.9229 13.7184C36.5802 13.8868 37.3173 15.8889 36.1647 17.0918L30.1034 23.4177C29.667 23.8731 29.4711 24.5078 29.5747 25.13L30.8817 32.9773C31.1548 34.617 29.4245 35.8548 27.9608 35.0669L20.448 31.0224C19.8562 30.7037 19.1438 30.7037 18.552 31.0224L11.0392 35.0669C9.57553 35.8548 7.84524 34.617 8.11834 32.9772L9.42534 25.13C9.52897 24.5078 9.333 23.8731 8.89661 23.4177L2.82605 17.0822C1.67517 15.881 2.40826 13.8817 4.06279 13.7092L12.24 12.8569C12.9294 12.785 13.5324 12.3613 13.8337 11.7372L17.6472 3.83795Z" fill="#F8D107"/>
<path d="M16.108 25H24.046V23.334H21.246V14.598H19.734C18.964 15.116 18.054 15.242 16.752 15.466V16.754H19.188V23.334H16.108V25Z" fill="white"/>
</svg>
