<svg width="16" height="16" viewBox="0 0 16 16" fill="none" xmlns="http://www.w3.org/2000/svg">
<circle cx="8" cy="8" r="8" fill="white"/>
<path d="M11.552 7.49753L6.50214 2.44789C6.38544 2.33095 6.22953 2.2666 6.06323 2.2666C5.89694 2.2666 5.74103 2.33095 5.62433 2.44789L5.2523 2.81968C5.01036 3.06185 5.01036 3.45578 5.2523 3.6975L9.49286 7.93805L5.24769 12.1832C5.13099 12.3002 5.06641 12.4558 5.06641 12.6221C5.06641 12.7884 5.13099 12.9443 5.24769 13.0613L5.61948 13.4331C5.73642 13.55 5.8921 13.6143 6.05839 13.6143C6.22468 13.6143 6.3806 13.55 6.4973 13.4331L11.552 8.37858C11.6692 8.26141 11.7333 8.10481 11.7331 7.93828C11.7333 7.7713 11.6692 7.6147 11.552 7.49753Z" fill="#105E33"/>
</svg>
