<svg width="50" height="50" viewBox="0 0 50 50" fill="none" xmlns="http://www.w3.org/2000/svg">
<circle cx="25" cy="25" r="25" fill="black"/>
<path d="M36.1009 23.43L20.32 7.64982C19.9553 7.2844 19.4681 7.08331 18.9484 7.08331C18.4287 7.08331 17.9415 7.2844 17.5768 7.64982L16.4142 8.81168C15.6582 9.56847 15.6582 10.7995 16.4142 11.5549L29.666 24.8066L16.3998 38.0728C16.0351 38.4382 15.8333 38.9247 15.8333 39.4443C15.8333 39.964 16.0351 40.4512 16.3998 40.8167L17.5617 41.9785C17.9271 42.3439 18.4136 42.545 18.9333 42.545C19.4529 42.545 19.9402 42.3439 20.3049 41.9785L36.1009 26.1832C36.467 25.8171 36.6674 25.3277 36.6666 24.8073C36.6674 24.2855 36.467 23.7961 36.1009 23.43Z" fill="white"/>
</svg>
