<svg width="38" height="38" viewBox="0 0 38 38" fill="none" xmlns="http://www.w3.org/2000/svg">
<path d="M30.7622 29.2834L27.7464 24.0725C26.6693 22.2115 24.0128 22.1287 22.9137 23.8783C22.1188 25.0805 20.4521 25.4201 19.2076 24.7722C16.4637 23.2507 13.5163 18.3727 13.6068 15.0948C13.5195 13.6563 14.7947 12.4255 16.2358 12.3399C18.3043 12.2652 19.5606 9.92875 18.4836 8.06772L15.4678 2.85685C14.5668 1.51474 12.8026 1.04202 11.4983 1.79323L7.95802 3.83223C4.37846 6.01794 5.38238 14.6208 10.4446 23.3676C15.5069 32.1144 22.434 37.4299 26.1606 35.2835L29.7008 33.2445C31.0445 32.3466 31.5162 30.5861 30.7622 29.2834Z" fill="#ffffff"/>
</svg>
